<svg width="48" height="69" viewBox="0 0 48 69" fill="none" xmlns="http://www.w3.org/2000/svg">
<g id="Vector">
<path d="M24 29.325C27.4364 29.325 30.2222 26.6219 30.2222 23.2875C30.2222 19.9531 27.4364 17.25 24 17.25C20.5636 17.25 17.7778 19.9531 17.7778 23.2875C17.7778 26.6219 20.5636 29.325 24 29.325Z" fill="#01AC6A"/>
<path d="M24 29.325C27.4364 29.325 30.2222 26.6219 30.2222 23.2875C30.2222 19.9531 27.4364 17.25 24 17.25C20.5636 17.25 17.7778 19.9531 17.7778 23.2875C17.7778 26.6219 20.5636 29.325 24 29.325Z" fill="url(#paint0_linear_634_31)"/>
<path fill-rule="evenodd" clip-rule="evenodd" d="M0 69L24 46C37.2549 46 48 35.7025 48 23C48 10.2975 37.2549 0 24 0C10.7451 0 0 10.2975 0 23V69ZM24 37.375H20.3504L8.88889 48.359V23C8.88889 15.1616 15.5499 8.625 24 8.625C32.4501 8.625 39.1111 15.1616 39.1111 23C39.1111 30.8384 32.4501 37.375 24 37.375Z" fill="#01AC6A"/>
<path fill-rule="evenodd" clip-rule="evenodd" d="M0 69L24 46C37.2549 46 48 35.7025 48 23C48 10.2975 37.2549 0 24 0C10.7451 0 0 10.2975 0 23V69ZM24 37.375H20.3504L8.88889 48.359V23C8.88889 15.1616 15.5499 8.625 24 8.625C32.4501 8.625 39.1111 15.1616 39.1111 23C39.1111 30.8384 32.4501 37.375 24 37.375Z" fill="url(#paint1_linear_634_31)"/>
</g>
<defs>
<linearGradient id="paint0_linear_634_31" x1="23.9999" y1="-14.3748" x2="63.1447" y2="12.9764" gradientUnits="userSpaceOnUse">
<stop stop-color="#00C97B"/>
<stop offset="1" stop-color="#008D57"/>
</linearGradient>
<linearGradient id="paint1_linear_634_31" x1="23.9999" y1="-14.3748" x2="63.1447" y2="12.9764" gradientUnits="userSpaceOnUse">
<stop stop-color="#00C97B"/>
<stop offset="1" stop-color="#008D57"/>
</linearGradient>
</defs>
</svg>
