<svg width="28" height="40" viewBox="0 0 28 40" fill="none" xmlns="http://www.w3.org/2000/svg">
      <path d="M14 17C16.0046 17 17.6296 15.433 17.6296 13.5C17.6296 11.567 16.0046 10 14 10C11.9954 10 10.3704 11.567 10.3704 13.5C10.3704 15.433 11.9954 17 14 17Z" fill="#01AC6A"/>
      <path d="M14 17C16.0046 17 17.6296 15.433 17.6296 13.5C17.6296 11.567 16.0046 10 14 10C11.9954 10 10.3704 11.567 10.3704 13.5C10.3704 15.433 11.9954 17 14 17Z" fill="url(#paint0_linear_644_2308)"/>
      <path fill-rule="evenodd" clip-rule="evenodd" d="M0 40L14 26.6667C21.732 26.6667 28 20.6971 28 13.3333C28 5.96954 21.732 0 14 0C6.268 0 0 5.96954 0 13.3333V40ZM14 21.6667H11.8711L5.18518 28.0342V13.3333C5.18518 8.78934 9.07079 5 14 5C18.9292 5 22.8148 8.78934 22.8148 13.3333C22.8148 17.8773 18.9292 21.6667 14 21.6667Z" fill="#01AC6A"/>
      <path fill-rule="evenodd" clip-rule="evenodd" d="M0 40L14 26.6667C21.732 26.6667 28 20.6971 28 13.3333C28 5.96954 21.732 0 14 0C6.268 0 0 5.96954 0 13.3333V40ZM14 21.6667H11.8711L5.18518 28.0342V13.3333C5.18518 8.78934 9.07079 5 14 5C18.9292 5 22.8148 8.78934 22.8148 13.3333C22.8148 17.8773 18.9292 21.6667 14 21.6667Z" fill="url(#paint1_linear_644_2308)"/>
      <defs>
      <linearGradient id="paint0_linear_644_2308" x1="13.9999" y1="-8.33323" x2="36.7409" y2="7.65562" gradientUnits="userSpaceOnUse">
      <stop stop-color="#00C97B"/>
      <stop offset="1" stop-color="#008D57"/>
      </linearGradient>
      <linearGradient id="paint1_linear_644_2308" x1="13.9999" y1="-8.33323" x2="36.7409" y2="7.65562" gradientUnits="userSpaceOnUse">
      <stop stop-color="#00C97B"/>
      <stop offset="1" stop-color="#008D57"/>
      </linearGradient>
      </defs>
      </svg>